<svg xmlns="http://www.w3.org/2000/svg" viewBox="0 0 900 620" role="img" aria-label="Lost and Found project mockup">
  <rect width="900" height="620" fill="#f5edd8"/>
  <rect x="74" y="72" width="752" height="476" rx="34" fill="#1a1814"/>
  <rect x="108" y="106" width="684" height="408" rx="24" fill="#fdfbf8"/>
  <rect x="142" y="144" width="222" height="328" rx="22" fill="#2d2a24"/>
  <rect x="170" y="174" width="166" height="166" rx="18" fill="#f5edd8"/>
  <path d="M202 208h102v102H202zM222 228h18v18h-18zM266 228h18v18h-18zM222 272h18v18h-18zM258 258h46v46h-46z" fill="#8b7340"/>
  <rect x="170" y="368" width="124" height="13" rx="6" fill="#c4a96d"/>
  <rect x="170" y="396" width="92" height="10" rx="5" fill="#7f776e"/>
  <rect x="400" y="154" width="302" height="26" rx="13" fill="#1a1814"/>
  <rect x="400" y="203" width="236" height="13" rx="6" fill="#8b7340"/>
  <rect x="400" y="238" width="300" height="11" rx="5" fill="#cbbf9f"/>
  <rect x="400" y="266" width="264" height="11" rx="5" fill="#cbbf9f"/>
  <rect x="400" y="330" width="324" height="92" rx="22" fill="#f7f4ef" stroke="#dacaa2"/>
  <circle cx="445" cy="376" r="26" fill="#c4a96d"/>
  <rect x="488" y="354" width="154" height="13" rx="6" fill="#1a1814"/>
  <rect x="488" y="382" width="206" height="10" rx="5" fill="#8b7340"/>
  <path d="M695 447l44 44M739 447l-44 44" stroke="#8b7340" stroke-width="10" stroke-linecap="round"/>
</svg>
